# xmcd
#
# Track frame offsets:
# 150
# 15371
# 25811
# 36183
# 46054
# 59187
# 71893
# 86501
# 99928
# 112890
# 124550
# 136275
# 149187
# 159169
# 170002
# 185896
#
# Disc length: 2640 seconds
#
#
# Revision: 0
# Processed by: cddbd v1.5.2PL0 Copyright (c) Steve Scherf et al.
# Submitted via: FreeRIP 2.945 
#
DISCID=dd0a4e10
DTITLE=Various Artist - Classic Country 60 Country and Western Hits
DYEAR=2007
DGENRE=Country
TTITLE0=Billie Jo Spears - Blanket On the Ground
TTITLE1=Ferlin Husky - Wings Of A Dove
TTITLE2=Faron Young - Hello Walls
TTITLE3=Ned Miller - From a Jack to a King
TTITLE4=Lynn Anderson - Rose Garden
TTITLE5=Claude King - Wolverton Mountain
TTITLE6=Loretta Lynn - Cool Miner's Daughter
TTITLE7=Jimmy Dean - Big bad John
TTITLE8=Johnny Horton - North to Alaska
TTITLE9=Johnny Cash - Ring of Fire
TTITLE10=Donna Fago - The Happiest Girl in the USA
TTITLE11=Charlie Rich - The most beautiful girl
TTITLE12=Hank Locklin - Please Help me I'm falling
TTITLE13=Johnny Tillotson - It keeps right of a Hurtin
TTITLE14=Lucky - It only takes a little Woman
TTITLE15=Merle Haggard - If we make it through December
EXTD=CD 1
EXTT0=
EXTT1=
EXTT2=
EXTT3=
EXTT4=
EXTT5=
EXTT6=
EXTT7=
EXTT8=
EXTT9=
EXTT10=
EXTT11=
EXTT12=
EXTT13=
EXTT14=
EXTT15=
PLAYORDER=
